<?xml version="1.0" standalone="no"?>
<!DOCTYPE svg PUBLIC "-//W3C//DTD SVG 20010904//EN"
 "http://www.w3.org/TR/2001/REC-SVG-20010904/DTD/svg10.dtd">
<svg version="1.0" xmlns="http://www.w3.org/2000/svg"
 width="678.000000pt" height="915.000000pt" viewBox="0 0 678.000000 915.000000"
 preserveAspectRatio="xMidYMid meet">

<g transform="translate(0.000000,915.000000) scale(0.100000,-0.100000)"
fill="#000000" stroke="none">
<path d="M0 8150 c0 -877 2 -1000 15 -1000 14 0 21 56 16 127 -1 11 2 24 8 28
7 4 7 12 -1 24 -6 10 -9 25 -6 32 3 8 5 16 5 19 0 3 4 14 10 25 8 15 8 25 -2
39 -10 13 -11 25 -5 42 6 15 6 34 0 49 -6 17 -5 36 4 63 8 23 11 45 6 53 -14
21 -4 146 13 173 15 22 15 25 -3 41 -19 17 -19 19 -2 31 10 8 12 13 5 14 -13
0 -12 13 2 58 7 21 8 21 20 5 9 -12 10 -22 4 -30 -7 -7 -6 -13 0 -17 5 -4 12
-2 16 4 4 6 11 7 17 4 8 -5 9 -1 5 10 -4 10 -7 29 -7 42 0 13 -3 23 -7 22 -5
0 -19 4 -33 10 -23 10 -22 11 17 11 24 1 43 -4 46 -11 2 -7 8 -9 13 -5 5 5 -2
17 -16 27 -14 10 -21 22 -17 26 4 4 0 16 -10 26 -9 11 -11 18 -5 18 7 0 12 17
12 41 0 24 4 38 10 34 6 -3 10 -1 10 5 0 6 -7 13 -15 16 -20 8 -19 34 3 50 15
12 15 13 1 14 -19 0 -33 26 -19 35 6 4 7 23 4 43 -3 20 -1 49 5 65 10 25 9 27
-14 27 -14 0 -25 5 -25 10 0 6 19 10 42 10 47 0 43 10 -10 26 -33 9 -37 13
-36 42 2 23 -3 32 -13 32 -10 0 -14 7 -10 19 3 12 -4 28 -19 42 -22 21 -22 23
-6 35 9 7 28 14 42 15 l25 1 -25 7 c-29 8 -42 50 -16 52 29 3 34 4 42 12 4 4
-5 7 -19 7 -16 0 -30 8 -37 19 -15 29 -13 34 15 27 31 -8 32 1 4 25 -19 16
-20 19 -5 25 21 8 21 40 -1 48 -11 5 -14 10 -7 14 6 4 19 21 27 39 9 17 26 34
37 38 28 9 25 22 -7 30 l-28 7 24 12 c13 8 32 11 43 8 10 -2 18 1 18 7 0 6
-17 11 -40 11 -38 0 -40 2 -40 30 0 31 1 31 48 29 26 -1 56 2 67 8 17 10 16
11 -11 16 -16 3 -64 6 -107 7 l-77 1 0 -1001z m95 850 c3 -5 -1 -10 -9 -10 -9
0 -16 5 -16 10 0 6 4 10 9 10 6 0 13 -4 16 -10z m-18 -662 c-3 -8 -6 -5 -6 6
-1 11 2 17 5 13 3 -3 4 -12 1 -19z"/>
<path d="M6260 9126 c0 -13 -5 -26 -11 -28 -6 -2 -9 -13 -6 -23 5 -19 5 -19
12 3 10 29 17 28 37 -8 17 -30 17 -31 -8 -41 -22 -8 -24 -12 -14 -24 9 -11 17
-12 32 -4 14 8 23 8 31 0 8 -8 8 -11 -1 -11 -7 0 -12 -12 -12 -26 0 -15 -7
-32 -17 -39 -17 -13 -10 -35 11 -35 8 0 16 -10 19 -22 3 -13 9 -33 12 -45 6
-17 3 -23 -9 -23 -10 0 -16 -9 -16 -25 0 -21 5 -25 30 -25 17 0 30 -5 30 -11
0 -6 -9 -8 -20 -4 -11 4 -20 2 -20 -4 0 -6 8 -11 18 -11 10 0 23 -5 30 -12 9
-9 12 -5 12 20 0 18 4 32 9 32 5 0 7 -9 4 -19 -3 -11 5 -33 18 -50 17 -24 20
-34 11 -43 -8 -8 -15 -8 -27 2 -13 11 -15 9 -15 -10 0 -13 8 -29 18 -36 16
-13 16 -13 0 -14 -14 0 -18 -9 -18 -39 0 -22 5 -43 10 -46 6 -3 10 -15 10 -26
0 -16 5 -19 20 -14 18 6 20 2 20 -50 0 -56 14 -85 42 -85 8 0 7 -4 -4 -11 -22
-12 -23 -35 -2 -43 12 -4 15 -18 13 -53 -3 -46 -2 -48 24 -48 15 -1 32 -6 39
-13 7 -7 25 -12 40 -12 30 0 40 -19 11 -21 -11 0 -13 -2 -5 -6 7 -3 23 2 37
11 15 10 25 12 27 5 2 -7 12 -7 31 2 29 13 34 24 16 34 -5 4 -8 21 -5 38 4 22
3 26 -2 13 -5 -12 -11 -15 -15 -9 -4 6 0 24 8 39 10 22 12 39 5 69 -7 31 -5
49 10 82 18 40 13 62 -10 48 -5 -3 -7 0 -4 9 3 8 11 17 18 19 17 7 14 86 -4
98 -8 5 -10 9 -4 9 18 0 24 69 26 320 l1 235 -246 3 -247 2 0 -24z m379 -921
c-5 -12 -7 10 -7 55 l1 75 7 -55 c4 -30 3 -64 -1 -75z"/>
<path d="M95 9090 c3 -5 15 -10 25 -10 10 0 22 5 25 10 4 6 -7 10 -25 10 -18
0 -29 -4 -25 -10z"/>
<path d="M3424 9091 c3 -4 16 -6 30 -4 13 3 32 0 43 -6 16 -9 15 -10 -7 -10
-65 2 -204 -12 -215 -21 -8 -6 -44 -10 -82 -9 -79 2 -125 -18 -116 -51 4 -14
-4 -23 -33 -35 -52 -22 -131 -39 -176 -38 -21 1 -36 -3 -33 -7 7 -11 -30 -19
-45 -10 -16 10 -42 1 -34 -11 3 -5 -2 -9 -11 -9 -9 0 -42 -13 -72 -30 -30 -16
-61 -30 -68 -30 -8 0 -26 -12 -40 -27 -22 -24 -27 -26 -36 -13 -9 13 -10 13
-6 0 2 -9 -9 -23 -28 -35 -42 -26 -125 -98 -125 -108 0 -4 -11 -25 -24 -46
-16 -25 -34 -40 -53 -44 -41 -8 -113 -57 -113 -77 0 -9 -15 -30 -33 -46 -18
-16 -39 -39 -48 -51 -8 -11 -31 -31 -52 -43 -43 -25 -58 -48 -51 -76 3 -14 -6
-26 -32 -44 -20 -13 -43 -38 -51 -55 -8 -16 -25 -45 -38 -64 -34 -47 -33 -81
1 -81 21 0 24 -3 15 -14 -6 -7 -9 -20 -5 -29 3 -10 -2 -18 -16 -22 -14 -4 -19
-12 -15 -22 3 -9 -2 -24 -11 -34 -21 -23 -10 -39 27 -39 27 0 40 -14 19 -22
-5 -1 -11 -14 -12 -28 -2 -14 -8 -29 -14 -35 -7 -5 -14 -22 -16 -37 -4 -22 -1
-28 13 -28 26 0 24 -66 -3 -73 -23 -7 -35 -37 -17 -47 7 -5 17 -6 21 -4 14 9
8 -13 -7 -26 -21 -18 -19 -28 8 -32 12 -2 21 -9 19 -16 -1 -6 5 -12 13 -12 20
0 20 -44 0 -60 -21 -18 -19 -32 5 -25 26 8 26 -13 1 -63 -18 -36 -18 -39 1
-112 11 -41 19 -90 19 -109 -1 -19 6 -42 15 -53 12 -12 13 -18 4 -18 -10 0
-10 -3 0 -15 7 -8 10 -22 6 -30 -3 -9 -2 -13 4 -10 6 3 10 -1 10 -11 0 -13 3
-14 15 -4 17 14 21 0 4 -17 -8 -8 -5 -19 11 -41 12 -17 19 -35 16 -41 -4 -6
-3 -11 2 -11 13 0 25 -48 23 -87 -2 -18 2 -33 8 -33 6 0 11 5 11 12 0 25 17
-9 38 -75 17 -51 21 -82 16 -122 -4 -39 -2 -55 6 -55 7 0 10 -7 6 -15 -3 -9 0
-15 10 -15 12 0 15 -7 11 -25 -3 -18 2 -30 14 -39 13 -9 20 -27 21 -54 1 -34
4 -40 15 -31 10 9 13 6 13 -15 0 -14 6 -26 13 -26 7 0 13 -17 14 -45 2 -39 0
-45 -19 -45 -44 0 -138 -100 -138 -147 0 -10 -16 -50 -35 -89 -46 -91 -50
-117 -31 -209 9 -42 16 -91 16 -109 0 -27 34 -127 75 -221 14 -31 79 -91 138
-125 46 -27 121 -40 164 -28 41 11 47 6 63 -57 6 -22 15 -48 20 -57 6 -10 10
-24 10 -31 0 -14 68 -159 115 -248 27 -52 32 -79 13 -79 -9 0 -9 -3 1 -9 9 -6
12 -19 8 -36 -2 -16 -1 -41 3 -56 5 -16 5 -29 1 -29 -11 0 -3 -90 15 -174 13
-62 13 -71 -1 -93 -9 -13 -23 -27 -32 -30 -35 -13 -263 -266 -263 -291 0 -6
-13 -23 -30 -39 -16 -15 -30 -35 -30 -44 0 -9 -7 -22 -14 -29 -8 -6 -20 -27
-26 -45 -10 -31 -16 -35 -68 -46 -31 -6 -91 -20 -132 -30 -41 -10 -90 -21
-109 -24 -19 -3 -38 -8 -42 -11 -4 -2 -50 -15 -101 -28 -81 -21 -188 -51 -408
-112 -30 -9 -82 -25 -115 -36 -73 -24 -101 -32 -185 -55 -36 -10 -70 -22 -76
-26 -7 -4 -43 -14 -80 -22 -158 -36 -326 -86 -346 -103 -9 -7 -23 -10 -32 -6
-9 3 -16 2 -16 -4 0 -15 -37 -21 -50 -8 -9 8 -11 6 -6 -9 4 -16 -4 -27 -42
-53 -26 -17 -53 -32 -60 -32 -7 0 -11 -4 -8 -9 3 -5 -5 -16 -19 -25 -28 -18
-39 -21 -30 -6 3 6 1 10 -5 10 -6 0 -8 5 -5 10 5 8 11 8 20 0 10 -8 15 -8 21
1 4 8 3 9 -4 5 -7 -4 -12 -1 -12 8 0 9 8 16 19 16 10 0 29 9 42 21 13 11 20
18 14 16 -5 -3 -16 1 -23 9 -7 8 -8 14 -2 14 5 0 10 5 10 11 0 5 -4 8 -9 4 -5
-3 -12 -1 -15 4 -7 10 11 26 29 26 5 0 11 8 13 18 2 10 -3 17 -11 17 -8 0 -17
9 -20 21 -3 12 -10 18 -16 15 -5 -4 -12 -2 -16 3 -5 10 30 35 50 36 6 0 10 16
9 35 0 27 -4 34 -17 32 -10 -2 -25 2 -35 7 -14 8 -9 11 23 12 34 2 35 3 10 6
-16 3 -37 11 -47 18 -18 12 -17 14 14 34 l33 21 -29 0 -30 0 35 36 c24 25 28
33 14 28 -11 -4 -28 -14 -38 -22 -9 -8 -20 -12 -24 -9 -3 4 -12 2 -20 -4 -10
-9 -13 -5 -13 19 0 24 -5 32 -22 35 -17 3 -14 5 9 6 26 1 34 6 39 26 3 13 4
30 1 37 -3 8 -6 6 -6 -5 -2 -39 -26 -8 -32 39 -4 36 -7 44 -13 31 -5 -9 -6
-26 -3 -37 3 -11 1 -20 -3 -20 -5 0 -11 -12 -13 -27 -2 -16 -5 8 -7 52 -2 44
-5 65 -7 47 -7 -51 -23 -27 -23 34 0 41 4 54 15 54 10 0 15 10 15 33 l-1 32
-14 -30 c-13 -30 -13 -29 -14 28 -1 33 -5 56 -10 52 -5 -3 -12 -1 -16 4 -3 5
2 14 11 19 20 11 27 74 11 85 -9 5 -9 9 1 15 21 14 -32 72 -58 65 -11 -3 -20
0 -20 6 0 6 5 11 10 11 6 0 10 18 10 40 0 29 -4 40 -15 40 -19 0 -19 24 0 40
16 14 20 40 6 40 -5 0 -11 -5 -13 -11 -2 -7 -4 6 -5 27 -1 21 -6 40 -12 42
-16 5 -13 22 4 22 8 0 16 5 16 10 1 6 3 15 4 20 1 6 3 14 4 19 0 5 14 14 31
21 16 7 30 16 30 20 0 10 -30 21 -40 15 -4 -2 -7 12 -7 33 0 21 -2 42 -5 48
-6 12 5 55 15 55 31 -3 34 2 41 61 5 51 3 69 -14 100 -25 48 -25 44 6 73 l27
25 -32 0 c-36 0 -41 20 -11 50 17 17 18 24 8 52 -6 18 -17 37 -25 41 -10 6
-12 19 -7 43 4 24 3 34 -6 34 -7 0 -2 9 11 20 l24 20 -24 20 -23 20 22 0 c18
0 20 3 11 14 -7 8 -10 32 -8 53 3 35 1 39 -21 41 -35 3 -44 11 -36 35 9 31 14
34 25 17 7 -12 10 -11 15 7 4 13 11 20 20 16 8 -3 14 1 14 10 0 9 -8 18 -19
22 -19 6 -20 14 -20 119 -1 37 -5 63 -13 67 -7 4 -9 12 -4 16 5 4 11 2 13 -4
7 -20 23 -15 23 7 0 11 -4 20 -10 20 -5 0 -10 9 -10 19 0 11 -6 22 -12 24 -8
4 -4 8 9 12 l22 7 -22 18 -22 18 28 11 c34 13 35 20 1 13 l-27 -5 8 78 c5 59
4 80 -6 86 -10 6 -9 12 5 28 18 20 18 20 -10 27 -18 5 -29 3 -32 -4 -6 -20
-22 -2 -22 26 0 20 3 23 12 14 15 -15 68 -16 68 -1 0 7 -12 10 -30 7 -20 -3
-30 0 -30 9 0 7 9 13 20 13 11 0 20 5 20 10 0 6 -10 10 -21 10 -18 0 -21 4
-16 29 8 37 -2 71 -19 71 -8 0 -14 7 -14 15 0 8 -7 15 -15 15 -18 0 -19 12 -4
27 12 12 16 293 5 311 -4 6 0 17 8 24 12 11 12 15 -1 31 -15 15 -14 19 2 37
12 13 14 20 5 20 -10 0 -10 3 -1 14 8 10 9 16 2 21 -6 3 -11 16 -11 28 1 119
-2 177 -11 177 -6 0 -9 14 -7 32 2 18 -2 33 -9 35 -10 4 -13 -729 -13 -3566
l0 -3571 3390 0 3390 0 0 1499 0 1498 -40 28 c-22 15 -40 32 -40 36 0 5 -6 9
-14 9 -38 0 -29 55 11 64 14 4 23 10 20 13 -4 3 -2 14 4 24 7 15 4 23 -15 40
-14 12 -23 26 -19 31 3 6 7 36 9 68 3 54 1 59 -19 62 -12 2 -21 9 -19 16 1 7
-5 15 -13 18 -18 7 -20 25 -2 21 6 -1 12 4 12 11 0 6 -3 12 -7 12 -5 0 -17 0
-28 0 -14 0 -20 -7 -20 -21 0 -15 -5 -20 -22 -17 -12 2 -23 9 -26 17 -3 8 0
11 7 7 6 -4 18 -1 26 8 17 17 20 46 5 46 -5 0 -10 8 -10 18 0 9 -9 23 -20 30
-12 7 -18 17 -15 22 4 6 -5 14 -19 19 -18 8 -23 15 -19 30 4 15 1 21 -11 21
-9 0 -16 8 -16 20 0 16 -5 19 -22 17 -13 -2 -17 -2 -10 0 8 3 11 11 8 20 -3 8
-6 17 -6 19 0 2 -7 4 -15 4 -8 0 -15 5 -15 10 0 6 5 10 10 10 6 0 10 7 10 16
0 8 -5 12 -11 8 -6 -3 -15 0 -20 7 -6 10 -9 8 -9 -8 0 -16 -6 -23 -20 -23 -11
0 -20 -4 -20 -10 0 -5 -9 -10 -20 -10 -11 0 -20 -6 -20 -13 0 -7 -10 -18 -22
-26 -19 -12 -23 -11 -34 3 -6 9 -24 19 -38 22 -37 6 -34 -19 7 -47 17 -12 34
-24 36 -26 2 -2 0 -13 -6 -26 -39 -82 -48 -148 -24 -169 13 -11 22 -13 29 -6
13 13 34 -24 26 -45 -3 -8 0 -18 6 -22 7 -4 14 2 17 14 7 26 23 28 23 2 0 -11
4 -23 10 -26 5 -3 15 -15 20 -26 9 -16 7 -19 -10 -19 -12 0 -19 4 -16 9 4 5
-3 7 -14 4 -12 -3 -20 0 -20 6 0 7 -5 9 -10 6 -6 -4 -8 -11 -5 -16 4 -5 -1 -9
-9 -9 -16 0 -87 30 -96 41 -3 3 -18 9 -33 13 -25 6 -27 9 -15 23 11 14 11 15
-7 6 -15 -9 -29 -7 -55 6 -19 9 -68 29 -108 45 -40 16 -75 33 -78 38 -3 4 -14
8 -25 8 -10 0 -19 5 -19 10 0 6 -7 10 -16 10 -9 0 -46 14 -83 30 -95 44 -110
51 -276 125 -123 55 -155 74 -177 104 -15 20 -37 48 -48 62 -12 14 -23 32 -24
40 -5 22 -19 53 -27 59 -21 15 -100 166 -91 175 4 5 1 5 -6 1 -8 -5 -17 4 -27
26 -9 18 -21 41 -28 52 -28 43 -205 196 -226 196 -5 0 -15 13 -22 29 -11 24
-15 27 -27 15 -37 -38 -44 -1 -43 221 1 215 6 266 26 305 8 16 14 33 13 37 -1
4 6 25 15 47 9 21 17 46 17 55 0 9 5 22 11 28 6 6 27 73 48 149 l38 139 49 5
c81 9 109 30 213 154 64 77 76 129 76 341 0 152 -1 164 -30 245 -32 92 -94
203 -128 231 -12 9 -35 20 -51 23 -24 5 -27 10 -22 28 3 13 12 56 18 96 7 46
15 68 20 60 5 -8 8 13 8 52 0 99 9 175 25 213 4 9 5 24 1 32 -3 8 -1 15 4 15
6 0 10 6 10 14 0 8 4 16 9 18 14 5 22 100 9 115 -7 9 -7 13 1 13 7 0 9 18 6
51 -3 36 0 49 8 46 13 -5 17 60 4 80 -4 6 -1 18 7 26 15 15 16 33 3 55 -5 7
-3 12 4 12 10 0 10 3 1 12 -18 18 -14 31 7 25 17 -4 16 1 -10 44 l-28 49 29
-4 c17 -2 30 1 30 5 0 5 -5 9 -11 9 -5 0 -8 4 -4 10 3 5 -3 18 -13 28 -17 17
-26 52 -13 52 3 0 7 13 8 29 1 21 -3 30 -17 34 -11 3 -20 10 -20 17 0 6 5 8
10 5 6 -3 10 -4 10 -1 0 9 -36 43 -51 49 -8 3 1 6 19 6 34 1 40 9 20 29 -9 9
-8 12 8 13 10 0 13 3 7 6 -18 7 -16 21 5 26 9 3 -2 3 -25 0 -24 -3 -43 -3 -43
-1 0 12 39 48 51 49 8 0 3 5 -10 10 -20 8 -22 14 -17 44 8 38 5 41 -24 23 -10
-7 -22 -10 -25 -7 -9 10 7 40 19 36 13 -4 36 17 36 33 0 7 -13 10 -32 8 -26
-2 -33 1 -33 14 0 9 -8 23 -19 31 -14 10 -20 31 -24 86 -2 39 -7 69 -10 66 -8
-8 -42 64 -42 87 0 10 -9 28 -20 40 -11 12 -32 40 -47 62 -16 23 -32 43 -37
45 -4 2 -16 12 -24 22 -9 11 -29 19 -44 19 -18 0 -28 5 -28 15 0 8 -3 15 -8
15 -4 0 -16 19 -26 43 -10 23 -40 74 -67 114 -27 40 -49 76 -49 80 0 4 5 1 10
-7 7 -10 10 -11 10 -2 0 7 -10 17 -22 23 -13 6 -36 30 -51 55 -25 38 -41 49
-68 46 -4 -1 -6 6 -5 15 0 9 -5 18 -13 21 -9 3 -11 0 -6 -8 5 -8 -2 -7 -16 3
-13 10 -24 25 -24 34 0 9 -7 17 -16 18 -9 2 -36 14 -60 29 -24 14 -64 35 -89
46 -25 11 -57 27 -71 35 -14 8 -28 12 -31 10 -2 -3 -38 3 -79 11 -41 9 -96 18
-124 19 -27 1 -54 3 -60 5 -21 6 -46 -1 -40 -10 9 -15 -71 -2 -115 18 -19 8
-62 21 -95 28 -68 15 -199 18 -191 5z m161 -31 c14 -7 8 -8 -20 -3 -22 3 -42
7 -44 9 -9 8 45 2 64 -6z m1205 -650 c0 -5 -2 -10 -4 -10 -3 0 -8 5 -11 10 -3
6 -1 10 4 10 6 0 11 -4 11 -10z m41 -61 c5 -10 5 -20 1 -23 -5 -3 -17 11 -26
31 -15 32 -16 35 -1 23 9 -7 20 -21 26 -31z m57 -93 c13 -24 27 -46 32 -48 12
-4 29 -137 18 -144 -4 -3 -8 -14 -8 -25 0 -11 -4 -18 -9 -14 -5 3 -9 24 -9 48
2 76 -11 137 -36 170 -13 18 -27 43 -31 57 -12 39 16 10 43 -44z m122 -276 c0
-5 -4 -10 -10 -10 -5 0 -10 5 -10 10 0 6 5 10 10 10 6 0 10 -4 10 -10z m35
-210 c-3 -5 -11 -10 -16 -10 -6 0 -7 5 -4 10 3 6 11 10 16 10 6 0 7 -4 4 -10z
m-1635 -145 c-7 -9 -15 -13 -18 -10 -3 2 1 11 8 20 7 9 15 13 18 10 3 -2 -1
-11 -8 -20z m-40 -16 c0 -6 -4 -8 -9 -4 -5 3 -12 1 -16 -5 -4 -6 -11 -7 -17
-4 -7 5 -5 12 7 20 19 14 35 10 35 -7z m-195 -29 c3 -5 1 -10 -4 -10 -6 0 -11
5 -11 10 0 6 2 10 4 10 3 0 8 -4 11 -10z m75 -5 c0 -8 -4 -15 -10 -15 -5 0
-10 7 -10 15 0 8 5 15 10 15 6 0 10 -7 10 -15z m130 -7 c0 -9 -32 -16 -72 -16
-29 0 -38 13 -15 21 18 7 87 3 87 -5z m-207 -34 c17 -23 21 -24 29 -10 12 22
97 14 115 -10 10 -14 19 -16 40 -8 14 5 27 17 29 27 4 32 14 31 20 -1 5 -25
10 -30 23 -23 9 5 27 7 41 6 14 -2 29 -4 33 -4 5 -1 5 -5 2 -11 -3 -6 5 -10
18 -10 14 0 27 -7 31 -15 3 -8 10 -15 16 -15 6 0 8 5 4 12 -5 8 -2 9 9 5 11
-4 17 -1 17 8 0 8 -4 15 -10 15 -5 0 -10 5 -10 10 0 6 7 10 15 10 8 0 15 -4
15 -10 0 -5 9 -14 21 -20 17 -9 23 -8 34 6 11 16 15 16 29 5 9 -7 16 -20 16
-27 0 -20 9 -17 31 9 15 18 18 19 19 5 0 -11 5 -15 15 -12 11 5 15 -1 15 -21
0 -15 4 -24 10 -20 6 3 10 18 10 31 0 41 25 22 26 -19 1 -39 -4 -42 -54 -38
-19 2 -22 -2 -16 -23 4 -17 1 -27 -13 -34 -14 -9 -16 -13 -5 -23 15 -16 16
-39 1 -39 -5 0 -7 5 -4 10 3 6 0 10 -8 10 -8 0 -14 8 -13 18 1 13 -5 16 -27
14 -18 -2 -26 1 -22 7 3 6 14 11 24 11 9 0 26 6 37 14 17 13 15 14 -24 12 -35
-2 -45 -7 -56 -28 -7 -14 -10 -31 -6 -39 10 -17 -5 -59 -21 -59 -7 0 -9 9 -5
25 8 29 -10 34 -30 8 -12 -16 -12 -15 -7 7 6 22 4 23 -9 12 -22 -18 -48 -4
-55 29 -6 30 -17 37 -28 19 -3 -5 -1 -10 4 -10 6 0 11 -4 11 -10 0 -5 -9 -10
-20 -10 -11 0 -20 -4 -20 -9 0 -11 -28 -41 -38 -41 -4 0 -12 11 -19 25 -10 22
-9 25 10 26 12 1 2 6 -23 12 l-45 11 45 7 c25 3 40 7 33 7 -7 1 -10 9 -6 19 5
13 3 15 -13 8 -10 -4 -27 -7 -37 -7 -16 1 -43 -41 -39 -60 1 -5 -12 -8 -28 -8
-17 0 -30 4 -30 8 0 13 -58 43 -77 40 -13 -2 -19 5 -21 24 -2 18 -12 30 -33
38 -40 17 -37 53 5 60 26 4 27 6 13 18 -14 12 -19 12 -33 -2 -30 -31 -47 3
-17 36 22 24 31 23 56 -8z m872 -4 c3 -5 1 -10 -4 -10 -6 0 -11 5 -11 10 0 6
2 10 4 10 3 0 8 -4 11 -10z m-315 -30 c0 -5 -4 -10 -10 -10 -5 0 -10 5 -10 10
0 6 5 10 10 10 6 0 10 -4 10 -10z m388 -29 c-1 -15 2 -33 5 -38 10 -15 -104
-27 -117 -12 -8 8 -5 9 12 4 13 -4 29 -2 37 5 8 6 19 8 26 4 7 -4 10 -2 7 7
-3 8 -10 14 -16 14 -13 0 -14 7 -6 30 3 8 10 13 14 10 5 -3 11 -1 15 5 11 17
24 1 23 -29z m70 11 c3 -9 -2 -13 -14 -10 -9 1 -19 9 -22 16 -3 9 2 13 14 10
9 -1 19 -9 22 -16z m-268 -24 c0 -11 -12 -10 -30 2 -12 7 -10 9 8 7 12 0 22
-5 22 -9z m54 -39 c-8 -13 -24 -1 -24 18 0 13 3 13 15 3 8 -7 12 -16 9 -21z
m-84 7 c0 -3 -4 -8 -10 -11 -5 -3 -10 -1 -10 4 0 6 5 11 10 11 6 0 10 -2 10
-4z m3 -50 c6 -14 -1 -26 -14 -26 -4 0 -7 9 -6 20 1 23 12 26 20 6z m-940 -51
c-3 -9 -2 -15 3 -14 27 5 54 -2 48 -12 -3 -6 -19 -9 -35 -5 -16 3 -29 1 -29
-4 0 -6 -4 -10 -10 -10 -14 0 -13 33 2 48 17 17 29 15 21 -3z m493 -320 c-6
-25 0 -30 32 -26 6 1 12 -7 12 -19 0 -11 5 -20 10 -20 6 0 10 -6 10 -13 0 -8
11 -19 24 -26 14 -8 26 -26 30 -43 3 -17 17 -38 30 -49 16 -13 22 -26 19 -42
-3 -17 2 -28 21 -41 14 -9 26 -21 26 -27 0 -7 -6 -6 -16 2 -15 12 -16 11 -9
-11 10 -33 10 -33 33 -21 30 16 56 -12 48 -51 -4 -20 -1 -30 9 -35 9 -3 14
-10 13 -17 -3 -16 12 -56 21 -56 5 0 6 -12 3 -26 -3 -18 -1 -25 6 -20 6 4 8
-2 5 -14 -4 -14 0 -20 12 -20 11 0 15 -5 12 -15 -4 -8 -2 -17 4 -21 6 -3 10
-36 9 -72 -1 -37 -1 -70 0 -74 2 -5 4 -12 5 -18 1 -5 4 -13 5 -17 1 -5 2 -15
1 -24 -2 -23 27 -43 65 -45 28 -1 33 2 29 16 -3 9 -1 28 5 41 10 23 10 23 6 2
-2 -13 1 -23 7 -23 23 0 127 -154 113 -167 -4 -4 -11 -2 -15 5 -4 7 -14 10
-22 7 -8 -3 -30 9 -51 28 -21 19 -39 29 -41 23 -3 -7 -14 -6 -35 5 -16 9 -41
15 -55 12 -13 -3 -28 0 -31 6 -4 6 -20 11 -37 11 -16 0 -29 5 -29 10 0 19 -31
10 -57 -17 -34 -38 -48 -74 -31 -85 7 -4 9 -8 3 -8 -5 0 -4 -4 2 -8 15 -10 26
-73 15 -89 -4 -7 -22 -16 -40 -19 -26 -5 -32 -3 -32 10 0 10 -4 15 -9 12 -5
-4 -24 6 -41 21 -24 19 -46 28 -86 31 -36 3 -54 1 -54 -7 0 -6 -9 -11 -21 -11
-11 0 -18 -4 -15 -8 2 -4 -5 -9 -16 -9 -26 -2 -27 -4 -30 -36 -2 -18 -8 -27
-19 -27 -30 0 -42 27 -36 84 5 47 17 78 64 160 17 29 -3 49 -22 22 -8 -10 -19
-15 -26 -10 -7 4 -17 1 -23 -8 -6 -8 -19 -17 -29 -21 -9 -4 -20 -20 -24 -37
-3 -17 -16 -39 -29 -49 -15 -12 -25 -32 -28 -60 -3 -23 -12 -48 -20 -57 -20
-19 -20 -38 -1 -58 17 -16 21 -41 5 -31 -5 3 -10 1 -10 -4 0 -6 9 -11 20 -11
11 0 20 -4 20 -10 0 -5 5 -10 10 -10 6 0 10 6 10 13 0 6 14 20 31 30 29 16 33
16 49 2 9 -8 24 -13 33 -9 13 5 17 -5 23 -57 6 -56 10 -63 35 -73 16 -6 29
-16 29 -23 0 -8 13 -12 33 -11 106 3 125 -1 156 -34 17 -18 31 -38 31 -44 0
-6 7 -17 15 -24 22 -18 2 -30 -48 -30 -35 0 -65 -10 -91 -31 -6 -5 -25 -20
-42 -34 -18 -14 -35 -25 -39 -25 -3 0 -18 -13 -32 -30 -13 -16 -31 -30 -38
-30 -8 0 -18 -8 -24 -17 -8 -15 -13 -16 -30 -5 -12 6 -29 12 -40 12 -10 0 -21
9 -24 20 -9 37 -43 23 -38 -15 0 -6 -14 -16 -32 -23 -17 -6 -37 -23 -43 -36
-13 -29 -7 -41 13 -25 9 9 13 8 13 0 0 -6 -4 -11 -10 -11 -18 0 -10 -49 10
-63 18 -12 18 -15 5 -20 -8 -4 -15 -18 -15 -34 1 -25 2 -26 14 -10 7 9 18 17
23 17 6 0 16 7 23 15 7 8 24 14 39 13 15 -1 33 2 41 7 17 10 82 7 90 -4 3 -5
12 -8 20 -9 33 -1 77 -9 87 -15 6 -4 30 -8 52 -9 23 -1 42 -6 43 -12 0 -6 2
-15 3 -21 2 -5 3 -16 4 -22 0 -7 9 -13 19 -13 15 0 17 -6 14 -34 -3 -29 -9
-35 -43 -45 -27 -8 -37 -16 -33 -26 4 -8 14 -15 24 -15 20 0 46 -27 36 -37 -4
-4 -11 -1 -16 7 -8 12 -10 10 -10 -7 0 -19 -5 -22 -30 -19 -16 2 -30 -1 -30
-5 0 -5 -7 -9 -16 -9 -8 0 -22 -7 -31 -15 -8 -8 -19 -13 -24 -10 -18 12 -29
-6 -14 -21 8 -9 13 -20 9 -25 -3 -5 1 -11 8 -13 7 -2 30 -9 52 -16 31 -10 43
-10 62 1 17 8 28 9 35 2 11 -11 2 -43 -12 -43 -4 0 -6 7 -3 15 4 8 3 15 -1 15
-13 0 -35 -29 -35 -46 0 -17 1 -17 13 -1 8 12 16 14 27 7 13 -8 12 -10 -2 -10
-11 0 -18 -8 -18 -20 0 -21 -34 -45 -50 -35 -6 3 -10 1 -10 -6 0 -6 -8 -9 -20
-6 -18 5 -19 2 -14 -36 5 -35 4 -40 -7 -29 -20 18 -29 15 -29 -11 0 -16 -9
-28 -27 -37 -46 -22 -62 -22 -56 0 7 25 -8 26 -36 1 -27 -24 -64 -17 -56 10 7
22 -20 27 -28 7 -3 -8 -6 -6 -6 4 -1 19 -41 46 -41 28 0 -5 -5 -10 -12 -10 -6
0 -3 9 7 20 18 19 17 20 -4 20 -15 0 -25 7 -28 20 -3 12 -13 20 -22 19 -35 -3
-51 2 -51 16 0 8 5 15 10 15 6 0 10 5 10 11 0 7 -9 9 -21 6 -12 -3 -22 0 -26
9 -3 8 -14 14 -24 14 -10 0 -19 5 -19 10 0 14 -28 12 -33 -2 -2 -7 -8 -10 -12
-6 -5 4 4 17 19 29 14 11 31 29 36 40 10 17 9 18 -15 7 -21 -10 -28 -9 -35 2
-5 8 -6 18 -4 22 3 5 3 26 -1 47 -6 34 -9 38 -32 33 -21 -4 -25 -2 -20 12 4
11 1 16 -11 16 -13 0 -12 3 6 16 12 8 20 20 17 25 -4 5 3 9 14 9 15 0 21 -7
22 -22 l0 -23 9 23 c5 12 16 22 25 22 8 0 15 5 15 11 0 5 -4 8 -9 4 -5 -3 -19
8 -31 25 -23 33 -40 39 -40 15 0 -8 5 -15 11 -15 6 0 9 -5 7 -12 -6 -17 -88
-19 -88 -3 0 14 -17 14 -39 1 -11 -7 -13 -5 -7 10 15 36 12 49 -12 48 -16 0
-21 4 -17 14 3 8 -2 20 -11 26 -15 11 -15 14 0 29 12 12 13 18 4 23 -6 4 -14
2 -16 -4 -6 -19 -29 -14 -35 8 -3 11 -2 22 3 25 4 2 6 28 4 57 -2 29 -3 56 -4
61 0 4 -7 7 -15 7 -9 0 -15 9 -15 24 0 35 -20 43 -21 9 0 -16 -3 -22 -6 -13
-3 8 -11 18 -16 22 -6 3 -12 17 -14 30 -5 38 -12 48 -27 42 -16 -6 -23 12 -25
65 -1 19 -7 41 -13 48 -6 8 -12 26 -13 41 -4 63 -5 64 -21 58 -12 -5 -15 0
-12 22 2 15 9 28 16 28 35 4 36 5 20 18 -25 18 -22 26 8 26 19 0 25 4 22 18
-3 11 -12 16 -26 15 -15 -2 -21 1 -16 8 3 6 14 9 24 6 30 -8 47 9 33 32 -17
28 -2 36 19 9 15 -19 18 -20 18 -6 0 10 -9 23 -20 30 -11 7 -20 19 -20 26 0 7
-5 10 -10 7 -7 -4 -9 2 -4 19 5 20 2 26 -10 26 -18 0 -19 2 -10 24 3 9 11 16
16 16 6 0 5 -6 -2 -15 -7 -8 -8 -15 -2 -15 5 0 15 7 22 15 9 11 7 19 -14 40
-27 27 -26 44 3 79 10 12 12 20 5 23 -20 7 -4 53 18 53 14 0 18 5 14 15 -4 10
1 15 15 15 20 0 49 21 49 36 0 12 34 33 53 34 10 0 15 5 12 10 -7 12 -3 12 19
4 9 -3 16 -15 16 -25 0 -20 15 -26 25 -9 4 7 14 5 27 -5 13 -8 32 -12 45 -9
22 6 29 -6 24 -38 0 -4 6 -5 14 -1 10 3 13 12 10 24 -7 23 8 25 25 4 11 -13
15 -13 33 0 29 20 34 19 43 -7 7 -22 7 -22 23 -2 9 11 23 23 31 27 38 19 59
34 55 39 -3 3 15 26 40 52 25 27 45 52 45 56 0 5 8 6 19 3 12 -3 20 2 24 16 5
21 37 30 37 11 0 -15 16 -12 34 5 8 8 22 12 31 9 11 -5 18 0 22 15 3 11 11 21
19 21 13 0 21 19 27 65 1 11 6 21 11 22 10 2 36 51 36 68 0 7 7 18 15 25 8 7
14 22 14 34 -1 11 4 36 10 55 9 29 8 34 -8 38 -14 4 -17 13 -15 44 2 26 -5 54
-19 80 l-22 41 -18 -23 c-17 -21 -20 -22 -28 -6 -6 9 -17 17 -24 17 -8 0 -15
6 -15 14 0 8 -3 21 -6 30 -3 9 -1 16 5 16 6 0 11 -7 11 -16 0 -30 43 -11 64
29 23 43 31 48 22 12z m718 -280 c3 -9 -1 -18 -10 -22 -19 -7 -28 2 -21 22 8
19 23 19 31 0z m656 -185 c0 -5 -2 -10 -4 -10 -3 0 -8 5 -11 10 -3 6 -1 10 4
10 6 0 11 -4 11 -10z m37 -42 c-3 -8 -6 -5 -6 6 -1 11 2 17 5 13 3 -3 4 -12 1
-19z m-112 -48 c3 -5 -1 -10 -10 -10 -9 0 -13 5 -10 10 3 6 8 10 10 10 2 0 7
-4 10 -10z m100 0 c3 -5 1 -10 -4 -10 -6 0 -11 5 -11 10 0 6 2 10 4 10 3 0 8
-4 11 -10z m50 -66 c10 -67 15 -118 9 -105 -5 11 -8 11 -15 0 -5 -9 -9 17 -9
65 0 79 6 96 15 40z m-281 -18 c-3 -9 -10 -16 -15 -16 -5 0 -4 9 3 20 14 22
21 20 12 -4z m229 -22 c-4 -12 -8 -13 -14 -3 -9 15 -2 32 11 24 5 -3 6 -13 3
-21z m-263 -24 c0 -5 -4 -10 -10 -10 -5 0 -10 5 -10 10 0 6 5 10 10 10 6 0 10
-4 10 -10z m-10 -30 c13 -7 21 -7 25 0 4 6 22 9 43 5 43 -7 51 -13 32 -25 -10
-6 -11 -10 -3 -10 7 0 18 -10 25 -23 7 -12 22 -23 32 -22 11 0 21 -6 24 -12 2
-7 -2 -13 -10 -13 -8 0 -14 -8 -14 -17 0 -10 -3 -36 -7 -58 -3 -22 -4 -35 -1
-29 3 7 14 10 24 7 11 -3 20 0 20 6 0 6 8 11 17 11 15 0 14 -2 -3 -18 -27 -25
-72 -36 -90 -21 -8 7 -14 7 -14 1 0 -5 11 -17 25 -26 19 -13 24 -22 20 -38 -6
-17 -4 -19 13 -14 15 5 22 1 27 -13 3 -11 12 -20 18 -18 7 1 14 -19 18 -53 6
-54 16 -90 26 -90 3 0 12 8 19 18 12 16 13 15 14 -5 0 -13 -4 -23 -10 -23 -5
0 -7 -6 -4 -13 2 -7 -7 -26 -21 -41 l-25 -27 23 -9 c12 -5 16 -9 10 -9 -7 -1
-13 -9 -13 -18 0 -14 -2 -15 -9 -4 -5 7 -14 10 -20 7 -18 -12 -12 -25 14 -32
14 -3 25 -11 25 -17 0 -16 -31 -47 -48 -47 -11 0 -12 -3 -4 -13 9 -10 -4 -12
-61 -11 -88 2 -87 1 -87 15 0 6 7 9 15 5 17 -6 18 -4 9 18 -7 19 -31 21 -36 4
-3 -7 -10 -8 -17 -4 -9 6 -7 14 10 32 12 13 29 24 37 24 8 0 12 6 8 15 -4 12
3 13 38 9 42 -6 69 7 45 22 -6 3 -15 1 -19 -7 -7 -10 -12 -10 -22 -1 -8 6 -24
9 -36 5 -12 -3 -22 -1 -22 5 0 6 -20 22 -45 36 -25 15 -45 30 -45 35 0 12 47
31 75 31 14 0 25 -4 25 -8 0 -11 51 -35 58 -28 3 3 -4 9 -14 13 -28 10 -49 34
-37 41 5 4 16 17 22 30 11 21 10 24 -10 29 -22 6 -22 7 -3 14 16 6 15 8 -8 8
-15 1 -30 6 -34 12 -7 11 12 29 31 29 6 0 3 -5 -5 -10 -12 -8 -10 -10 8 -10
13 0 20 4 17 10 -3 6 -1 10 4 10 6 0 11 5 11 10 0 6 -7 10 -15 10 -8 0 -16 10
-16 23 l-2 22 -4 -23 c-2 -12 -8 -20 -13 -17 -5 3 -6 13 -3 21 4 10 -2 17 -16
21 -11 3 -21 11 -21 19 0 10 -6 11 -26 4 -39 -15 -44 -13 -44 24 0 29 3 33 20
29 23 -6 25 -14 8 -31 -7 -7 -9 -12 -4 -12 11 0 36 27 36 39 0 6 -5 11 -11 11
-6 0 -9 6 -6 13 4 10 -2 13 -19 9 -17 -3 -24 0 -24 11 0 8 -6 17 -12 19 -7 3
-13 13 -13 24 0 10 -6 18 -12 17 -7 -2 -13 4 -13 12 0 8 9 15 20 15 11 0 20 5
20 10 0 6 -7 10 -15 10 -8 0 -15 5 -15 10 0 6 12 10 26 10 14 0 23 4 20 9 -5
8 4 16 22 20 2 1 12 -4 22 -9z m-1761 -21 c-16 -10 -23 -4 -14 10 3 6 11 8 17
5 6 -4 5 -9 -3 -15z m2101 -18 c0 -5 -6 -14 -14 -20 -12 -10 -13 -8 -9 8 5 21
23 30 23 12z m-410 -139 c-8 -3 -18 -10 -22 -16 -5 -6 -8 -2 -8 11 0 17 4 20
22 15 16 -4 18 -7 8 -10z m-116 -18 c18 -7 22 -44 5 -44 -12 0 -38 29 -39 43
0 9 13 9 34 1z m362 -81 c-4 -4 -11 -1 -16 7 -16 25 -11 35 7 17 9 -9 13 -20
9 -24z m-147 9 c9 -2 6 -10 -10 -26 -13 -13 -29 -21 -37 -18 -12 4 -11 7 2 14
9 5 16 14 16 21 0 9 -3 8 -8 -1 -5 -7 -16 -10 -25 -6 -37 14 -1 23 62 16z
m-4524 -71 c-3 -6 -11 -11 -17 -11 -6 0 -6 6 2 15 14 17 26 13 15 -4z m4505
-5 c0 -2 -7 -6 -15 -10 -8 -3 -15 -1 -15 4 0 6 7 10 15 10 8 0 15 -2 15 -4z
m240 0 c0 -3 -4 -8 -10 -11 -5 -3 -10 -1 -10 4 0 6 5 11 10 11 6 0 10 -2 10
-4z m-2557 -43 c-7 -2 -21 -2 -30 0 -10 3 -4 5 12 5 17 0 24 -2 18 -5z m2367
-23 c0 -5 -4 -10 -10 -10 -5 0 -10 5 -10 10 0 6 5 10 10 10 6 0 10 -4 10 -10z
m228 -8 c8 -6 2 -9 -18 -9 -20 0 -26 3 -18 9 7 4 15 8 18 8 3 0 11 -4 18 -8z
m-273 -29 c-11 -3 -23 -10 -27 -17 -5 -7 -8 -7 -8 0 0 16 11 24 34 23 20 -1
20 -1 1 -6z m-925 -49 c0 -8 -5 -12 -10 -9 -6 4 -8 11 -5 16 9 14 15 11 15 -7z
m505 6 c3 -5 1 -10 -4 -10 -6 0 -11 5 -11 10 0 6 2 10 4 10 3 0 8 -4 11 -10z
m29 -45 c12 -18 13 -25 4 -26 -7 0 -3 -4 10 -9 12 -5 25 -16 28 -25 4 -8 13
-15 21 -15 12 0 14 -7 9 -30 -3 -17 -2 -29 3 -26 10 7 29 -35 24 -51 -7 -19
-23 -15 -23 5 0 12 -13 23 -36 31 -20 7 -32 16 -26 20 7 4 6 13 -4 25 -13 19
-14 19 -14 -5 l0 -24 -19 28 c-10 16 -16 37 -14 48 3 11 0 26 -7 34 -10 12
-10 18 0 30 17 21 25 19 44 -10z m373 -27 c-3 -8 -6 -5 -6 6 -1 11 2 17 5 13
3 -3 4 -12 1 -19z m53 -24 c0 -12 -36 -34 -56 -34 -14 0 -1 19 16 23 11 3 20
9 19 14 -3 17 1 24 11 18 6 -3 10 -13 10 -21z m-80 6 c0 -5 -4 -10 -10 -10 -5
0 -10 5 -10 10 0 6 5 10 10 10 6 0 10 -4 10 -10z m-180 -156 c0 -2 -11 -4 -25
-4 -14 0 -25 4 -25 9 0 4 11 6 25 3 14 -2 25 -6 25 -8z m-580 -9 c0 -3 -9 -15
-20 -27 -18 -20 -20 -20 -26 -4 -4 11 -1 22 7 27 16 10 39 12 39 4z m-1595
-75 c3 -5 -1 -10 -9 -10 -9 0 -16 5 -16 10 0 6 4 10 9 10 6 0 13 -4 16 -10z
m2425 -50 c0 -5 -2 -10 -4 -10 -3 0 -8 5 -11 10 -3 6 -1 10 4 10 6 0 11 -4 11
-10z m-2015 -20 c3 -5 -1 -10 -10 -10 -9 0 -13 5 -10 10 3 6 8 10 10 10 2 0 7
-4 10 -10z m2005 -25 c7 -8 8 -15 2 -15 -5 0 -15 7 -22 15 -7 8 -8 15 -2 15 5
0 15 -7 22 -15z m82 -47 c-7 -7 -12 -8 -12 -2 0 14 12 26 19 19 2 -3 -1 -11
-7 -17z m-2064 0 c16 -16 15 -38 -2 -38 -13 0 -26 20 -26 41 0 13 14 11 28 -3z
m1972 2 c0 -5 -2 -10 -4 -10 -3 0 -8 5 -11 10 -3 6 -1 10 4 10 6 0 11 -4 11
-10z m-1930 -60 c0 -5 -5 -10 -11 -10 -5 0 -7 5 -4 10 3 6 8 10 11 10 2 0 4
-4 4 -10z m1885 -49 c3 -5 1 -12 -5 -16 -5 -3 -10 1 -10 9 0 18 6 21 15 7z
m-4385 -221 c0 -5 -7 -10 -16 -10 -8 0 -12 5 -9 10 3 6 10 10 16 10 5 0 9 -4
9 -10z m2655 -50 c-3 -5 -13 -10 -21 -10 -8 0 -12 5 -9 10 3 6 13 10 21 10 8
0 12 -4 9 -10z m-2648 -32 c-3 -8 -6 -5 -6 6 -1 11 2 17 5 13 3 -3 4 -12 1
-19z m2673 12 c0 -5 -4 -10 -10 -10 -5 0 -10 5 -10 10 0 6 5 10 10 10 6 0 10
-4 10 -10z m65 -30 c3 -5 -1 -10 -9 -10 -9 0 -16 5 -16 10 0 6 4 10 9 10 6 0
13 -4 16 -10z m1368 -150 c20 -8 20 -9 -5 -7 -16 1 -28 6 -28 11 0 6 -5 5 -12
-2 -23 -23 -37 -12 -15 12 18 21 23 22 30 10 5 -9 18 -19 30 -24z m-1288 -30
c3 -5 1 -10 -4 -10 -6 0 -11 5 -11 10 0 6 2 10 4 10 3 0 8 -4 11 -10z m1261
-5 c9 -8 24 -15 35 -15 10 0 19 -4 19 -9 0 -19 -50 -8 -65 15 -17 27 -11 32
11 9z m-4120 -89 c3 -23 -20 -15 -24 8 -3 11 1 17 9 14 7 -2 13 -12 15 -22z
m3349 4 c3 -5 -1 -10 -9 -10 -9 0 -16 5 -16 10 0 6 4 10 9 10 6 0 13 -4 16
-10z m60 1 c3 -5 1 -12 -5 -16 -5 -3 -10 1 -10 9 0 18 6 21 15 7z m-61 -46
c-4 -8 -9 -15 -13 -15 -4 0 -8 7 -8 15 0 8 6 15 13 15 8 0 11 -6 8 -15z m2926
-886 c0 -18 -2 -20 -15 -9 -13 11 -13 15 -3 21 18 12 18 12 18 -12z m-74 -85
c-3 -9 -6 -20 -6 -25 0 -6 -4 -7 -10 -4 -5 3 -10 -2 -10 -13 0 -10 10 -24 23
-30 20 -10 19 -11 -16 -11 -42 -1 -42 3 -14 72 12 28 44 40 33 11z m-5928 -44
c-2 -6 -8 -6 -18 0 -13 9 -13 11 0 20 15 10 25 0 18 -20z m5953 -3 c-13 -13
-26 -3 -16 12 3 6 11 8 17 5 6 -4 6 -10 -1 -17z m327 -232 c-3 -3 -13 -2 -22
1 -14 5 -15 9 -4 15 13 8 36 -6 26 -16z m-239 -14 c-15 -5 -22 6 -14 19 6 9
10 9 16 -1 5 -8 4 -15 -2 -18z m-89 -31 c13 -9 13 -10 0 -10 -8 0 -22 5 -30
10 -13 9 -13 10 0 10 8 0 22 -5 30 -10z m100 -10 c0 -11 -4 -20 -10 -20 -5 0
-14 9 -20 20 -9 17 -8 20 10 20 13 0 20 -7 20 -20z m-6143 -22 c-3 -8 -6 -5
-6 6 -1 11 2 17 5 13 3 -3 4 -12 1 -19z m-22 -29 c-4 -5 -15 -14 -27 -20 -16
-9 -19 -8 -12 3 15 24 29 36 37 31 4 -2 5 -9 2 -14z m6158 14 c-7 -2 -19 -2
-25 0 -7 3 -2 5 12 5 14 0 19 -2 13 -5z m32 -29 c24 -10 40 -12 44 -6 3 6 11
0 17 -13 l11 -24 -55 25 c-78 34 -92 50 -17 18z m-3729 -76 l27 -33 -6 30 c-3
17 -4 24 -1 18 3 -7 13 -13 21 -13 9 0 13 -6 10 -14 -4 -10 -1 -13 7 -10 7 3
16 -2 19 -11 5 -11 14 -14 32 -9 14 3 31 1 40 -6 7 -6 24 -11 37 -9 37 3 77
-11 83 -31 3 -10 13 -24 22 -31 15 -13 23 -14 116 -17 27 -1 46 -6 43 -10 -3
-5 6 -15 19 -22 14 -7 27 -21 30 -30 3 -9 19 -27 36 -41 66 -52 70 -58 59 -79
-9 -16 -8 -20 5 -20 10 0 15 -10 15 -27 1 -24 2 -26 11 -10 12 20 31 14 23 -8
-3 -7 3 -18 14 -24 11 -6 23 -23 27 -38 4 -16 10 -22 12 -15 7 19 20 14 26 -9
3 -11 15 -23 27 -26 15 -4 20 -11 17 -24 -7 -25 74 -99 107 -99 29 0 44 -19
25 -31 -7 -4 -10 -12 -5 -16 5 -4 11 -2 13 5 8 21 23 13 23 -13 0 -18 4 -23
15 -19 8 4 15 1 15 -5 0 -6 7 -11 15 -11 8 0 15 -7 15 -15 0 -13 8 -32 27 -64
2 -2 12 4 23 14 21 19 28 65 10 65 -5 0 -10 -9 -10 -20 0 -11 -4 -20 -10 -20
-12 0 -13 30 -1 49 9 14 22 18 89 24 32 2 37 -4 34 -45 -1 -10 3 -18 8 -18 6
0 10 9 10 20 0 17 4 19 18 12 28 -15 67 -8 64 12 -4 20 17 21 24 1 10 -24 34
-18 34 9 0 15 -5 23 -14 22 -8 0 -14 4 -13 9 1 6 14 9 28 7 20 -2 28 2 32 18
3 11 1 22 -3 25 -5 3 -10 -2 -12 -10 -3 -14 -6 -14 -22 -2 -10 8 -16 18 -13
24 9 14 77 3 77 -13 0 -7 8 -17 17 -23 10 -5 14 -13 10 -17 -5 -5 -12 -3 -16
4 -6 10 -10 10 -20 -1 -8 -11 -9 -22 -1 -42 10 -26 9 -27 -16 -21 -24 6 -25 5
-11 -8 12 -12 20 -13 46 -3 17 6 31 14 31 18 0 10 61 -5 88 -22 27 -17 27 -20
4 -50 -10 -13 -22 -33 -26 -44 -8 -19 -8 -19 -19 3 -10 23 -27 30 -27 11 0
-16 -29 -41 -39 -34 -5 3 -12 1 -16 -5 -3 -5 1 -10 9 -10 9 0 16 -6 16 -14 0
-28 -22 -75 -38 -79 -12 -3 -10 -5 6 -6 28 -1 30 -31 2 -31 -11 0 -20 5 -20
10 0 6 -5 10 -11 10 -6 0 -8 -9 -4 -20 4 -13 2 -20 -6 -20 -10 0 -10 -3 -1
-12 9 -9 16 -7 32 7 11 10 23 15 28 11 4 -4 0 -13 -8 -19 -9 -7 -16 -22 -17
-35 -1 -13 -8 -30 -14 -39 -19 -22 -21 -96 -3 -89 16 6 19 -10 4 -19 -14 -9
-13 -45 1 -45 7 0 18 8 26 18 8 9 4 -3 -8 -28 -25 -52 -34 -65 -25 -32 6 16 3
22 -8 22 -9 0 -16 -4 -16 -9 0 -5 -3 -16 -6 -24 -3 -10 1 -17 13 -20 17 -4 17
-4 -1 -12 -35 -15 -58 -46 -53 -70 3 -18 -1 -25 -20 -29 -12 -4 -23 -11 -23
-16 0 -6 -24 -10 -54 -10 -63 0 -156 19 -156 32 0 5 -4 7 -9 4 -12 -8 -133 42
-151 63 -8 9 -19 18 -23 19 -12 2 -166 111 -219 155 -48 39 -87 108 -148 257
-12 30 -30 75 -41 100 -10 25 -32 80 -49 122 -31 81 -72 159 -124 240 -17 25
-44 69 -61 97 -16 28 -61 94 -98 146 -37 53 -65 101 -61 107 4 6 3 8 -4 4 -13
-8 -101 104 -95 122 8 21 30 13 59 -20z m3884 13 c0 -13 -28 -22 -35 -11 -3 4
1 11 7 13 20 8 28 8 28 -2z m33 -21 c-5 -20 -23 -26 -36 -13 -9 8 12 33 28 33
8 0 11 -8 8 -20z m-2298 -540 c3 -5 1 -10 -4 -10 -6 0 -11 5 -11 10 0 6 2 10
4 10 3 0 8 -4 11 -10z m-125 -30 c0 -13 -11 -13 -30 0 -12 8 -11 10 8 10 12 0
22 -4 22 -10z m-360 -10 c0 -5 -4 -10 -10 -10 -5 0 -10 5 -10 10 0 6 5 10 10
10 6 0 10 -4 10 -10z m310 -20 c0 -5 -7 -10 -15 -10 -8 0 -15 5 -15 10 0 6 7
10 15 10 8 0 15 -4 15 -10z m54 -16 c9 -24 7 -62 -4 -69 -10 -6 -50 29 -50 45
0 16 22 12 36 -7 12 -17 13 -17 14 -1 0 9 -4 20 -10 23 -12 8 -13 25 -1 25 5
0 12 -7 15 -16z m60 -26 c4 -24 3 -38 -4 -38 -5 0 -11 15 -11 33 -1 23 -3 26
-6 10 -5 -24 -23 -32 -23 -11 0 11 31 51 35 46 1 -2 5 -20 9 -40z m-411 21
c21 -5 37 -16 37 -24 0 -19 -24 -19 -40 0 -7 8 -27 15 -44 15 -24 0 -27 3 -16
10 19 12 17 12 63 -1z m117 1 c-8 -5 -24 -9 -35 -9 l-20 0 20 9 c11 5 27 9 35
9 13 1 13 0 0 -9z m-305 -30 c3 -5 1 -10 -4 -10 -6 0 -11 5 -11 10 0 6 2 10 4
10 3 0 8 -4 11 -10z m52 -40 c-1 -14 -4 -16 -14 -8 -18 14 -17 39 1 32 8 -3
14 -14 13 -24z m227 21 c3 -4 3 -11 0 -14 -8 -8 -34 3 -34 14 0 11 27 12 34 0z
m123 -543 c-3 -8 -6 -5 -6 6 -1 11 2 17 5 13 3 -3 4 -12 1 -19z m-47 -158 c-8
-5 -19 -10 -25 -10 -5 0 -3 5 5 10 8 5 20 10 25 10 6 0 3 -5 -5 -10z"/>
<path d="M3420 7480 c0 -5 5 -10 10 -10 6 0 10 5 10 10 0 6 -4 10 -10 10 -5 0
-10 -4 -10 -10z"/>
<path d="M3135 7450 c3 -5 12 -7 20 -3 21 7 19 13 -6 13 -11 0 -18 -4 -14 -10z"/>
<path d="M3670 6639 c0 -18 2 -19 15 -9 15 12 12 30 -6 30 -5 0 -9 -10 -9 -21z"/>
<path d="M3379 6307 c-9 -7 -16 -19 -17 -27 0 -8 -2 -24 -4 -34 -6 -36 21 -28
28 8 3 20 10 39 15 42 11 6 12 24 2 24 -5 0 -15 -6 -24 -13z"/>
<path d="M3487 5995 c-16 -12 -16 -13 8 -17 26 -5 30 -1 17 19 -5 8 -12 8 -25
-2z"/>
<path d="M2590 5766 c0 -9 5 -16 10 -16 6 0 10 4 10 9 0 6 -4 13 -10 16 -5 3
-10 -1 -10 -9z"/>
<path d="M3430 5610 c0 -5 7 -7 15 -4 8 4 15 8 15 10 0 2 -7 4 -15 4 -8 0 -15
-4 -15 -10z"/>
<path d="M3322 5585 c-29 -29 -18 -70 13 -47 11 8 45 58 45 67 0 13 -37 1 -58
-20z"/>
<path d="M2597 5486 c-3 -8 0 -17 7 -19 10 -4 12 1 9 14 -6 23 -9 24 -16 5z"/>
<path d="M2635 5440 c-3 -5 -1 -10 4 -10 6 0 11 5 11 10 0 6 -2 10 -4 10 -3 0
-8 -4 -11 -10z"/>
<path d="M3096 5441 c-4 -7 -5 -15 -2 -18 9 -9 19 4 14 18 -4 11 -6 11 -12 0z"/>
<path d="M2680 5373 c0 -5 4 -14 9 -21 7 -11 9 -11 14 1 3 8 3 18 0 21 -9 8
-23 7 -23 -1z"/>
<path d="M2791 5114 c0 -11 3 -14 6 -6 3 7 2 16 -1 19 -3 4 -6 -2 -5 -13z"/>
<path d="M2951 4924 c0 -11 3 -14 6 -6 3 7 2 16 -1 19 -3 4 -6 -2 -5 -13z"/>
<path d="M2975 4881 c3 -5 1 -12 -5 -16 -5 -3 -10 -14 -10 -23 0 -14 3 -13 21
5 20 20 19 43 -2 43 -6 0 -8 -4 -4 -9z"/>
<path d="M3356 4845 c-3 -8 -1 -15 4 -15 6 0 10 7 10 15 0 8 -2 15 -4 15 -2 0
-6 -7 -10 -15z"/>
<path d="M3008 4753 c7 -3 16 -2 19 1 4 3 -2 6 -13 5 -11 0 -14 -3 -6 -6z"/>
<path d="M3150 4659 c0 -5 5 -7 10 -4 6 3 10 8 10 11 0 2 -4 4 -10 4 -5 0 -10
-5 -10 -11z"/>
<path d="M3330 4636 c0 -9 5 -16 10 -16 6 0 10 4 10 9 0 6 -4 13 -10 16 -5 3
-10 -1 -10 -9z"/>
<path d="M3175 4630 c-3 -5 -1 -10 4 -10 6 0 11 5 11 10 0 6 -2 10 -4 10 -3 0
-8 -4 -11 -10z"/>
<path d="M4631 6073 c0 -4 4 -17 9 -28 8 -19 9 -19 9 2 1 12 -3 25 -9 28 -5 3
-10 3 -9 -2z"/>
<path d="M4660 6019 c0 -5 5 -7 10 -4 6 3 10 8 10 11 0 2 -4 4 -10 4 -5 0 -10
-5 -10 -11z"/>
<path d="M4761 5934 c0 -11 3 -14 6 -6 3 7 2 16 -1 19 -3 4 -6 -2 -5 -13z"/>
<path d="M4708 5881 c-9 -11 -14 -22 -11 -25 8 -7 35 22 31 34 -2 6 -11 2 -20
-9z"/>
<path d="M4721 5844 c0 -11 3 -14 6 -6 3 7 2 16 -1 19 -3 4 -6 -2 -5 -13z"/>
<path d="M4632 5778 c-18 -18 -14 -28 8 -28 11 0 20 6 20 14 0 21 -15 27 -28
14z"/>
<path d="M4760 5720 c0 -5 5 -10 10 -10 6 0 10 5 10 10 0 6 -4 10 -10 10 -5 0
-10 -4 -10 -10z"/>
<path d="M4660 5654 c-23 -13 -24 -14 -4 -14 12 0 27 7 34 15 15 18 4 18 -30
-1z"/>
<path d="M4715 5640 c-3 -5 -17 -10 -31 -10 -22 0 -23 -2 -12 -20 16 -25 40
-26 36 -2 -2 9 3 16 10 15 6 -2 12 4 12 12 0 17 -6 19 -15 5z"/>
<path d="M4765 5639 c-10 -16 1 -22 26 -14 17 6 19 9 8 16 -19 12 -26 11 -34
-2z"/>
<path d="M2697 3153 c-2 -5 6 -18 19 -31 27 -25 28 -24 14 12 -9 25 -24 34
-33 19z"/>
<path d="M3825 2420 c2 -31 15 -37 15 -7 0 15 -4 27 -8 27 -5 0 -8 -9 -7 -20z"/>
<path d="M4004 2416 c-3 -8 -11 -13 -18 -10 -7 3 -18 -7 -25 -22 -13 -29 -6
-47 10 -24 8 12 12 12 16 2 4 -10 8 -10 19 -1 11 9 14 8 14 -5 0 -9 7 -16 16
-16 11 0 14 -5 10 -16 -3 -9 1 -25 9 -37 13 -18 15 -19 15 -4 0 9 9 26 21 38
16 16 18 23 8 35 -7 8 -19 12 -27 9 -17 -6 -41 22 -42 48 0 21 -18 23 -26 3z"/>
<path d="M4154 2415 c-16 -13 -17 -16 -4 -25 21 -13 23 -13 43 15 17 24 17 25
-1 25 -10 0 -27 -7 -38 -15z"/>
<path d="M3926 2395 c-3 -8 -15 -15 -26 -15 -11 0 -20 -4 -20 -10 0 -5 8 -10
19 -10 14 0 17 -6 13 -26 -3 -16 -1 -25 5 -21 5 3 9 20 8 37 -1 19 3 30 12 30
7 0 13 7 13 15 0 8 -4 15 -9 15 -5 0 -11 -7 -15 -15z"/>
<path d="M4110 2375 c-10 -12 -10 -15 3 -15 8 0 17 -6 20 -12 3 -9 8 -10 15
-3 6 7 4 16 -8 28 -15 16 -19 16 -30 2z"/>
<path d="M3815 2340 c3 -5 10 -10 16 -10 5 0 9 5 9 10 0 6 -7 10 -16 10 -8 0
-12 -4 -9 -10z"/>
<path d="M3868 2343 c7 -3 16 -2 19 1 4 3 -2 6 -13 5 -11 0 -14 -3 -6 -6z"/>
<path d="M3990 2330 c-12 -8 -11 -10 8 -10 12 0 22 5 22 10 0 13 -11 13 -30 0z"/>
<path d="M4100 2261 c0 -5 -3 -16 -6 -25 -3 -9 -1 -16 5 -16 6 0 11 7 11 15 0
8 5 15 10 15 6 0 10 5 10 10 0 6 -7 10 -15 10 -8 0 -15 -4 -15 -9z"/>
<path d="M3231 2244 c0 -11 3 -14 6 -6 3 7 2 16 -1 19 -3 4 -6 -2 -5 -13z"/>
<path d="M3920 1718 c0 -20 35 -25 46 -6 5 8 2 9 -11 4 -11 -4 -22 -2 -27 6
-6 10 -8 8 -8 -4z"/>
<path d="M3750 9070 c20 -13 53 -13 45 0 -3 6 -18 10 -33 10 -21 0 -24 -2 -12
-10z"/>
<path d="M52 8638 c6 -18 28 -21 28 -4 0 9 -7 16 -16 16 -9 0 -14 -5 -12 -12z"/>
<path d="M6350 8620 c0 -5 7 -10 15 -10 8 0 15 5 15 10 0 6 -7 10 -15 10 -8 0
-15 -4 -15 -10z"/>
<path d="M120 8371 c0 -16 6 -21 25 -21 16 0 25 6 25 15 0 8 -4 15 -9 15 -5 0
-16 3 -25 6 -12 4 -16 0 -16 -15z"/>
<path d="M6460 8219 c0 -5 5 -7 10 -4 6 3 10 8 10 11 0 2 -4 4 -10 4 -5 0 -10
-5 -10 -11z"/>
<path d="M1846 8115 c-11 -8 -18 -17 -15 -19 7 -7 49 13 49 24 0 14 -11 12
-34 -5z"/>
<path d="M6620 8098 l-25 -10 23 -16 24 -15 -24 -13 c-23 -13 -22 -13 10 -14
28 0 32 3 32 28 0 41 -11 51 -40 40z"/>
<path d="M6585 8000 c-4 -6 -10 -8 -15 -5 -4 2 -10 -6 -12 -20 -4 -17 -1 -25
9 -25 8 0 11 -5 8 -10 -7 -11 3 -15 51 -24 26 -4 33 -1 43 20 9 20 8 28 -3 40
-8 8 -19 14 -25 14 -6 0 -11 5 -11 10 0 13 -37 13 -45 0z"/>
<path d="M6642 7830 c0 -14 2 -19 5 -12 2 6 2 18 0 25 -3 6 -5 1 -5 -13z"/>
<path d="M6620 7521 c0 -6 5 -13 10 -16 6 -3 10 1 10 9 0 9 -4 16 -10 16 -5 0
-10 -4 -10 -9z"/>
<path d="M71 7364 c0 -11 3 -14 6 -6 3 7 2 16 -1 19 -3 4 -6 -2 -5 -13z"/>
<path d="M71 6684 c0 -11 3 -14 6 -6 3 7 2 16 -1 19 -3 4 -6 -2 -5 -13z"/>
<path d="M162 6055 c0 -16 2 -22 5 -12 2 9 2 23 0 30 -3 6 -5 -1 -5 -18z"/>
<path d="M160 5759 c0 -5 5 -7 10 -4 6 3 10 8 10 11 0 2 -4 4 -10 4 -5 0 -10
-5 -10 -11z"/>
<path d="M160 5525 c0 -9 6 -12 15 -9 8 4 15 10 15 15 0 5 -7 9 -15 9 -8 0
-15 -7 -15 -15z"/>
<path d="M210 5030 c0 -19 3 -21 12 -12 9 9 9 15 0 24 -9 9 -12 7 -12 -12z"/>
<path d="M2620 4470 c0 -5 5 -10 11 -10 5 0 7 5 4 10 -3 6 -8 10 -11 10 -2 0
-4 -4 -4 -10z"/>
<path d="M162 4415 c0 -16 2 -22 5 -12 2 9 2 23 0 30 -3 6 -5 -1 -5 -18z"/>
<path d="M2625 4430 c3 -5 10 -10 16 -10 5 0 9 5 9 10 0 6 -7 10 -16 10 -8 0
-12 -4 -9 -10z"/>
<path d="M302 3905 c0 -16 2 -22 5 -12 2 9 2 23 0 30 -3 6 -5 -1 -5 -18z"/>
<path d="M347 3813 c-10 -9 -9 -23 2 -23 5 0 11 7 15 15 5 15 -5 20 -17 8z"/>
<path d="M300 3781 c0 -6 5 -13 10 -16 6 -3 10 1 10 9 0 9 -4 16 -10 16 -5 0
-10 -4 -10 -9z"/>
<path d="M6320 3740 c0 -5 5 -10 10 -10 6 0 10 5 10 10 0 6 -4 10 -10 10 -5 0
-10 -4 -10 -10z"/>
<path d="M6268 3703 c7 -3 16 -2 19 1 4 3 -2 6 -13 5 -11 0 -14 -3 -6 -6z"/>
<path d="M389 3670 c-21 -14 -2 -24 23 -13 17 7 19 11 6 15 -8 4 -21 2 -29 -2z"/>
<path d="M6217 3593 c-12 -11 -8 -23 8 -23 8 0 15 7 15 15 0 16 -12 20 -23 8z"/>
<path d="M6640 3584 c0 -8 5 -12 10 -9 6 3 10 10 10 16 0 5 -4 9 -10 9 -5 0
-10 -7 -10 -16z"/>
<path d="M6169 3546 c8 -10 9 -16 1 -19 -6 -3 -5 -4 2 -3 20 4 22 36 3 36 -14
0 -15 -3 -6 -14z"/>
<path d="M423 3533 c-18 -7 -16 -43 2 -43 8 0 15 -4 15 -9 0 -5 12 -11 27 -14
26 -5 26 -4 8 9 -10 8 -22 14 -27 14 -4 0 -8 9 -8 20 0 25 9 25 26 3 12 -17
13 -16 14 5 0 16 -6 22 -22 21 -13 0 -29 -3 -35 -6z"/>
<path d="M446 3435 c-3 -9 -6 -24 -5 -33 0 -9 5 -4 10 12 9 32 6 48 -5 21z"/>
</g>
</svg>
